<mxfile host="Electron" agent="Mozilla/5.0 (Windows NT 10.0; Win64; x64) AppleWebKit/537.36 (KHTML, like Gecko) draw.io/24.7.17 Chrome/128.0.6613.36 Electron/32.0.1 Safari/537.36" version="24.7.17">
  <diagram id="C5RBs43oDa-KdzZeNtuy" name="Page-1">
    <mxGraphModel dx="596" dy="1574" grid="1" gridSize="10" guides="1" tooltips="1" connect="1" arrows="1" fold="1" page="1" pageScale="1" pageWidth="827" pageHeight="1169" math="0" shadow="0">
      <root>
        <mxCell id="WIyWlLk6GJQsqaUBKTNV-0" />
        <mxCell id="WIyWlLk6GJQsqaUBKTNV-1" parent="WIyWlLk6GJQsqaUBKTNV-0" />
        <mxCell id="mdOWi9lv1OW8zj_rT4DC-4" value="Masukan Username anda" style="shape=parallelogram;perimeter=parallelogramPerimeter;whiteSpace=wrap;html=1;fixedSize=1;" vertex="1" parent="WIyWlLk6GJQsqaUBKTNV-1">
          <mxGeometry x="52.5" y="-1030" width="165" height="70" as="geometry" />
        </mxCell>
        <mxCell id="mdOWi9lv1OW8zj_rT4DC-6" value="" style="endArrow=classic;html=1;rounded=0;exitX=0.5;exitY=1;exitDx=0;exitDy=0;entryX=0.5;entryY=0;entryDx=0;entryDy=0;" edge="1" parent="WIyWlLk6GJQsqaUBKTNV-1" source="mdOWi9lv1OW8zj_rT4DC-4" target="mdOWi9lv1OW8zj_rT4DC-7">
          <mxGeometry width="50" height="50" relative="1" as="geometry">
            <mxPoint x="115" y="-790" as="sourcePoint" />
            <mxPoint x="165" y="-850" as="targetPoint" />
          </mxGeometry>
        </mxCell>
        <mxCell id="mdOWi9lv1OW8zj_rT4DC-7" value="Masukan Sandi anda" style="shape=parallelogram;perimeter=parallelogramPerimeter;whiteSpace=wrap;html=1;fixedSize=1;" vertex="1" parent="WIyWlLk6GJQsqaUBKTNV-1">
          <mxGeometry x="50" y="-930" width="170" height="70" as="geometry" />
        </mxCell>
        <mxCell id="mdOWi9lv1OW8zj_rT4DC-10" value="" style="endArrow=classic;html=1;rounded=0;exitX=0.5;exitY=1;exitDx=0;exitDy=0;entryX=0.5;entryY=0;entryDx=0;entryDy=0;" edge="1" parent="WIyWlLk6GJQsqaUBKTNV-1" source="mdOWi9lv1OW8zj_rT4DC-7" target="mdOWi9lv1OW8zj_rT4DC-16">
          <mxGeometry width="50" height="50" relative="1" as="geometry">
            <mxPoint x="115" y="-860" as="sourcePoint" />
            <mxPoint x="280" y="-970" as="targetPoint" />
          </mxGeometry>
        </mxCell>
        <mxCell id="mdOWi9lv1OW8zj_rT4DC-11" value="Apakah username dan sandi sesuai?" style="rhombus;whiteSpace=wrap;html=1;" vertex="1" parent="WIyWlLk6GJQsqaUBKTNV-1">
          <mxGeometry x="40" y="-700" width="190" height="201" as="geometry" />
        </mxCell>
        <mxCell id="mdOWi9lv1OW8zj_rT4DC-12" value="" style="endArrow=classic;html=1;rounded=0;exitX=0.5;exitY=1;exitDx=0;exitDy=0;entryX=0.5;entryY=0;entryDx=0;entryDy=0;" edge="1" parent="WIyWlLk6GJQsqaUBKTNV-1" source="mdOWi9lv1OW8zj_rT4DC-16" target="mdOWi9lv1OW8zj_rT4DC-11">
          <mxGeometry width="50" height="50" relative="1" as="geometry">
            <mxPoint x="135" y="-760" as="sourcePoint" />
            <mxPoint x="390" y="-770" as="targetPoint" />
          </mxGeometry>
        </mxCell>
        <mxCell id="mdOWi9lv1OW8zj_rT4DC-15" value="" style="edgeStyle=orthogonalEdgeStyle;rounded=0;orthogonalLoop=1;jettySize=auto;html=1;" edge="1" parent="WIyWlLk6GJQsqaUBKTNV-1" source="mdOWi9lv1OW8zj_rT4DC-14" target="mdOWi9lv1OW8zj_rT4DC-4">
          <mxGeometry relative="1" as="geometry" />
        </mxCell>
        <mxCell id="mdOWi9lv1OW8zj_rT4DC-14" value="START" style="strokeWidth=2;html=1;shape=mxgraph.flowchart.terminator;whiteSpace=wrap;" vertex="1" parent="WIyWlLk6GJQsqaUBKTNV-1">
          <mxGeometry x="85" y="-1140" width="100" height="60" as="geometry" />
        </mxCell>
        <mxCell id="mdOWi9lv1OW8zj_rT4DC-16" value="Percobaan 1" style="rounded=1;whiteSpace=wrap;html=1;absoluteArcSize=1;arcSize=14;strokeWidth=2;" vertex="1" parent="WIyWlLk6GJQsqaUBKTNV-1">
          <mxGeometry x="85" y="-830" width="100" height="100" as="geometry" />
        </mxCell>
        <mxCell id="mdOWi9lv1OW8zj_rT4DC-23" value="" style="edgeStyle=orthogonalEdgeStyle;rounded=0;orthogonalLoop=1;jettySize=auto;html=1;" edge="1" parent="WIyWlLk6GJQsqaUBKTNV-1" source="mdOWi9lv1OW8zj_rT4DC-19" target="mdOWi9lv1OW8zj_rT4DC-22">
          <mxGeometry relative="1" as="geometry" />
        </mxCell>
        <mxCell id="mdOWi9lv1OW8zj_rT4DC-19" value="Percobaan 2" style="rounded=1;whiteSpace=wrap;html=1;absoluteArcSize=1;arcSize=14;strokeWidth=2;" vertex="1" parent="WIyWlLk6GJQsqaUBKTNV-1">
          <mxGeometry x="85" y="-470" width="100" height="100" as="geometry" />
        </mxCell>
        <mxCell id="mdOWi9lv1OW8zj_rT4DC-25" value="" style="edgeStyle=orthogonalEdgeStyle;rounded=0;orthogonalLoop=1;jettySize=auto;html=1;" edge="1" parent="WIyWlLk6GJQsqaUBKTNV-1" source="mdOWi9lv1OW8zj_rT4DC-20" target="mdOWi9lv1OW8zj_rT4DC-21">
          <mxGeometry relative="1" as="geometry" />
        </mxCell>
        <mxCell id="mdOWi9lv1OW8zj_rT4DC-20" value="Percobaan 3" style="rounded=1;whiteSpace=wrap;html=1;absoluteArcSize=1;arcSize=14;strokeWidth=2;" vertex="1" parent="WIyWlLk6GJQsqaUBKTNV-1">
          <mxGeometry x="85" y="-100" width="100" height="100" as="geometry" />
        </mxCell>
        <mxCell id="mdOWi9lv1OW8zj_rT4DC-45" value="" style="edgeStyle=orthogonalEdgeStyle;rounded=0;orthogonalLoop=1;jettySize=auto;html=1;" edge="1" parent="WIyWlLk6GJQsqaUBKTNV-1" source="mdOWi9lv1OW8zj_rT4DC-21" target="mdOWi9lv1OW8zj_rT4DC-43">
          <mxGeometry relative="1" as="geometry" />
        </mxCell>
        <mxCell id="mdOWi9lv1OW8zj_rT4DC-21" value="Apakah username dan sandi sesuai?" style="rhombus;whiteSpace=wrap;html=1;" vertex="1" parent="WIyWlLk6GJQsqaUBKTNV-1">
          <mxGeometry x="40" y="20" width="190" height="201" as="geometry" />
        </mxCell>
        <mxCell id="mdOWi9lv1OW8zj_rT4DC-24" value="" style="edgeStyle=orthogonalEdgeStyle;rounded=0;orthogonalLoop=1;jettySize=auto;html=1;" edge="1" parent="WIyWlLk6GJQsqaUBKTNV-1" source="mdOWi9lv1OW8zj_rT4DC-22" target="mdOWi9lv1OW8zj_rT4DC-20">
          <mxGeometry relative="1" as="geometry" />
        </mxCell>
        <mxCell id="mdOWi9lv1OW8zj_rT4DC-22" value="Apakah username dan sandi sesuai?" style="rhombus;whiteSpace=wrap;html=1;" vertex="1" parent="WIyWlLk6GJQsqaUBKTNV-1">
          <mxGeometry x="40" y="-330" width="190" height="201" as="geometry" />
        </mxCell>
        <mxCell id="mdOWi9lv1OW8zj_rT4DC-27" value="" style="endArrow=none;html=1;rounded=0;exitX=1;exitY=0.5;exitDx=0;exitDy=0;" edge="1" parent="WIyWlLk6GJQsqaUBKTNV-1" source="mdOWi9lv1OW8zj_rT4DC-11">
          <mxGeometry width="50" height="50" relative="1" as="geometry">
            <mxPoint x="380" y="-410" as="sourcePoint" />
            <mxPoint x="520" y="-600" as="targetPoint" />
          </mxGeometry>
        </mxCell>
        <mxCell id="mdOWi9lv1OW8zj_rT4DC-28" value="" style="endArrow=none;html=1;rounded=0;exitX=1;exitY=0.5;exitDx=0;exitDy=0;" edge="1" parent="WIyWlLk6GJQsqaUBKTNV-1" source="mdOWi9lv1OW8zj_rT4DC-22">
          <mxGeometry width="50" height="50" relative="1" as="geometry">
            <mxPoint x="230" y="-239" as="sourcePoint" />
            <mxPoint x="520" y="-230" as="targetPoint" />
          </mxGeometry>
        </mxCell>
        <mxCell id="mdOWi9lv1OW8zj_rT4DC-29" value="" style="endArrow=none;html=1;rounded=0;exitX=1;exitY=0.5;exitDx=0;exitDy=0;" edge="1" parent="WIyWlLk6GJQsqaUBKTNV-1" source="mdOWi9lv1OW8zj_rT4DC-21">
          <mxGeometry width="50" height="50" relative="1" as="geometry">
            <mxPoint x="290" y="180" as="sourcePoint" />
            <mxPoint x="520" y="120" as="targetPoint" />
          </mxGeometry>
        </mxCell>
        <mxCell id="mdOWi9lv1OW8zj_rT4DC-30" value="" style="endArrow=classic;html=1;rounded=0;entryX=0.5;entryY=0;entryDx=0;entryDy=0;" edge="1" parent="WIyWlLk6GJQsqaUBKTNV-1" target="mdOWi9lv1OW8zj_rT4DC-47">
          <mxGeometry width="50" height="50" relative="1" as="geometry">
            <mxPoint x="520" y="-600" as="sourcePoint" />
            <mxPoint x="520" y="180" as="targetPoint" />
          </mxGeometry>
        </mxCell>
        <mxCell id="mdOWi9lv1OW8zj_rT4DC-32" value="iya" style="text;html=1;align=center;verticalAlign=middle;resizable=0;points=[];autosize=1;strokeColor=none;fillColor=none;" vertex="1" parent="WIyWlLk6GJQsqaUBKTNV-1">
          <mxGeometry x="335" y="-630" width="40" height="30" as="geometry" />
        </mxCell>
        <mxCell id="mdOWi9lv1OW8zj_rT4DC-33" value="iya" style="text;html=1;align=center;verticalAlign=middle;resizable=0;points=[];autosize=1;strokeColor=none;fillColor=none;" vertex="1" parent="WIyWlLk6GJQsqaUBKTNV-1">
          <mxGeometry x="335" y="-260" width="40" height="30" as="geometry" />
        </mxCell>
        <mxCell id="mdOWi9lv1OW8zj_rT4DC-34" value="iya" style="text;html=1;align=center;verticalAlign=middle;resizable=0;points=[];autosize=1;strokeColor=none;fillColor=none;" vertex="1" parent="WIyWlLk6GJQsqaUBKTNV-1">
          <mxGeometry x="335" y="90" width="40" height="30" as="geometry" />
        </mxCell>
        <mxCell id="mdOWi9lv1OW8zj_rT4DC-38" value="" style="endArrow=classic;html=1;rounded=0;exitX=0.5;exitY=1;exitDx=0;exitDy=0;entryX=0.5;entryY=0;entryDx=0;entryDy=0;" edge="1" parent="WIyWlLk6GJQsqaUBKTNV-1" source="mdOWi9lv1OW8zj_rT4DC-11" target="mdOWi9lv1OW8zj_rT4DC-19">
          <mxGeometry width="50" height="50" relative="1" as="geometry">
            <mxPoint x="135" y="-499" as="sourcePoint" />
            <mxPoint x="135" y="-470" as="targetPoint" />
            <Array as="points" />
          </mxGeometry>
        </mxCell>
        <mxCell id="mdOWi9lv1OW8zj_rT4DC-39" value="Text" style="edgeLabel;html=1;align=center;verticalAlign=middle;resizable=0;points=[];" vertex="1" connectable="0" parent="mdOWi9lv1OW8zj_rT4DC-38">
          <mxGeometry x="-0.0532" y="1" relative="1" as="geometry">
            <mxPoint x="174" y="-31" as="offset" />
          </mxGeometry>
        </mxCell>
        <mxCell id="mdOWi9lv1OW8zj_rT4DC-35" value="tidak" style="text;html=1;align=center;verticalAlign=middle;resizable=0;points=[];autosize=1;strokeColor=none;fillColor=none;" vertex="1" parent="WIyWlLk6GJQsqaUBKTNV-1">
          <mxGeometry x="140" y="-510" width="50" height="30" as="geometry" />
        </mxCell>
        <mxCell id="mdOWi9lv1OW8zj_rT4DC-41" value="tidak" style="text;html=1;align=center;verticalAlign=middle;resizable=0;points=[];autosize=1;strokeColor=none;fillColor=none;" vertex="1" parent="WIyWlLk6GJQsqaUBKTNV-1">
          <mxGeometry x="140" y="-130" width="50" height="30" as="geometry" />
        </mxCell>
        <mxCell id="mdOWi9lv1OW8zj_rT4DC-43" value="Anda tidak berhasil login" style="rounded=1;whiteSpace=wrap;html=1;absoluteArcSize=1;arcSize=14;strokeWidth=2;" vertex="1" parent="WIyWlLk6GJQsqaUBKTNV-1">
          <mxGeometry x="85" y="250" width="100" height="100" as="geometry" />
        </mxCell>
        <mxCell id="mdOWi9lv1OW8zj_rT4DC-46" value="tidak" style="text;html=1;align=center;verticalAlign=middle;resizable=0;points=[];autosize=1;strokeColor=none;fillColor=none;" vertex="1" parent="WIyWlLk6GJQsqaUBKTNV-1">
          <mxGeometry x="140" y="220" width="50" height="30" as="geometry" />
        </mxCell>
        <mxCell id="mdOWi9lv1OW8zj_rT4DC-47" value="Menu Program perhitungan bangun ruang" style="rounded=1;whiteSpace=wrap;html=1;absoluteArcSize=1;arcSize=14;strokeWidth=2;" vertex="1" parent="WIyWlLk6GJQsqaUBKTNV-1">
          <mxGeometry x="470" y="140" width="100" height="100" as="geometry" />
        </mxCell>
        <mxCell id="mdOWi9lv1OW8zj_rT4DC-50" value="" style="endArrow=none;html=1;rounded=0;entryX=0.5;entryY=1;entryDx=0;entryDy=0;" edge="1" parent="WIyWlLk6GJQsqaUBKTNV-1" target="mdOWi9lv1OW8zj_rT4DC-47">
          <mxGeometry width="50" height="50" relative="1" as="geometry">
            <mxPoint x="520" y="280" as="sourcePoint" />
            <mxPoint x="420" y="270" as="targetPoint" />
          </mxGeometry>
        </mxCell>
        <mxCell id="mdOWi9lv1OW8zj_rT4DC-51" value="" style="endArrow=none;html=1;rounded=0;" edge="1" parent="WIyWlLk6GJQsqaUBKTNV-1">
          <mxGeometry width="50" height="50" relative="1" as="geometry">
            <mxPoint x="290" y="280" as="sourcePoint" />
            <mxPoint x="760" y="280" as="targetPoint" />
          </mxGeometry>
        </mxCell>
        <mxCell id="mdOWi9lv1OW8zj_rT4DC-52" value="Luas permukaan kubus" style="rounded=1;whiteSpace=wrap;html=1;absoluteArcSize=1;arcSize=14;strokeWidth=2;" vertex="1" parent="WIyWlLk6GJQsqaUBKTNV-1">
          <mxGeometry x="335" y="320" width="60" height="60" as="geometry" />
        </mxCell>
        <mxCell id="mdOWi9lv1OW8zj_rT4DC-53" value="keliling kubus" style="rounded=1;whiteSpace=wrap;html=1;absoluteArcSize=1;arcSize=14;strokeWidth=2;" vertex="1" parent="WIyWlLk6GJQsqaUBKTNV-1">
          <mxGeometry x="413" y="320" width="60" height="60" as="geometry" />
        </mxCell>
        <mxCell id="mdOWi9lv1OW8zj_rT4DC-54" value="Volume kubus" style="rounded=1;whiteSpace=wrap;html=1;absoluteArcSize=1;arcSize=14;strokeWidth=2;" vertex="1" parent="WIyWlLk6GJQsqaUBKTNV-1">
          <mxGeometry x="260" y="320" width="60" height="60" as="geometry" />
        </mxCell>
        <mxCell id="mdOWi9lv1OW8zj_rT4DC-55" value="Volume balok" style="rounded=1;whiteSpace=wrap;html=1;absoluteArcSize=1;arcSize=14;strokeWidth=2;" vertex="1" parent="WIyWlLk6GJQsqaUBKTNV-1">
          <mxGeometry x="490" y="320" width="60" height="60" as="geometry" />
        </mxCell>
        <mxCell id="mdOWi9lv1OW8zj_rT4DC-56" value="keliling balok" style="rounded=1;whiteSpace=wrap;html=1;absoluteArcSize=1;arcSize=14;strokeWidth=2;" vertex="1" parent="WIyWlLk6GJQsqaUBKTNV-1">
          <mxGeometry x="650" y="320" width="60" height="60" as="geometry" />
        </mxCell>
        <mxCell id="mdOWi9lv1OW8zj_rT4DC-57" value="luas balok" style="rounded=1;whiteSpace=wrap;html=1;absoluteArcSize=1;arcSize=14;strokeWidth=2;" vertex="1" parent="WIyWlLk6GJQsqaUBKTNV-1">
          <mxGeometry x="570" y="320" width="60" height="60" as="geometry" />
        </mxCell>
        <mxCell id="mdOWi9lv1OW8zj_rT4DC-58" value="keluar" style="rounded=1;whiteSpace=wrap;html=1;absoluteArcSize=1;arcSize=14;strokeWidth=2;" vertex="1" parent="WIyWlLk6GJQsqaUBKTNV-1">
          <mxGeometry x="730" y="320" width="60" height="60" as="geometry" />
        </mxCell>
        <mxCell id="mdOWi9lv1OW8zj_rT4DC-59" value="" style="endArrow=classic;html=1;rounded=0;entryX=0.5;entryY=0;entryDx=0;entryDy=0;" edge="1" parent="WIyWlLk6GJQsqaUBKTNV-1" target="mdOWi9lv1OW8zj_rT4DC-54">
          <mxGeometry width="50" height="50" relative="1" as="geometry">
            <mxPoint x="290" y="280" as="sourcePoint" />
            <mxPoint x="410" y="420" as="targetPoint" />
          </mxGeometry>
        </mxCell>
        <mxCell id="mdOWi9lv1OW8zj_rT4DC-60" value="" style="endArrow=classic;html=1;rounded=0;entryX=0.5;entryY=0;entryDx=0;entryDy=0;" edge="1" parent="WIyWlLk6GJQsqaUBKTNV-1" target="mdOWi9lv1OW8zj_rT4DC-52">
          <mxGeometry width="50" height="50" relative="1" as="geometry">
            <mxPoint x="365" y="280" as="sourcePoint" />
            <mxPoint x="370" y="340" as="targetPoint" />
          </mxGeometry>
        </mxCell>
        <mxCell id="mdOWi9lv1OW8zj_rT4DC-61" value="" style="endArrow=classic;html=1;rounded=0;entryX=0.5;entryY=0;entryDx=0;entryDy=0;" edge="1" parent="WIyWlLk6GJQsqaUBKTNV-1">
          <mxGeometry width="50" height="50" relative="1" as="geometry">
            <mxPoint x="520" y="280" as="sourcePoint" />
            <mxPoint x="520" y="320" as="targetPoint" />
          </mxGeometry>
        </mxCell>
        <mxCell id="mdOWi9lv1OW8zj_rT4DC-62" value="" style="endArrow=classic;html=1;rounded=0;entryX=0.5;entryY=0;entryDx=0;entryDy=0;" edge="1" parent="WIyWlLk6GJQsqaUBKTNV-1" target="mdOWi9lv1OW8zj_rT4DC-53">
          <mxGeometry width="50" height="50" relative="1" as="geometry">
            <mxPoint x="443" y="280" as="sourcePoint" />
            <mxPoint x="400" y="560" as="targetPoint" />
            <Array as="points" />
          </mxGeometry>
        </mxCell>
        <mxCell id="mdOWi9lv1OW8zj_rT4DC-63" value="" style="endArrow=classic;html=1;rounded=0;entryX=0.5;entryY=0;entryDx=0;entryDy=0;" edge="1" parent="WIyWlLk6GJQsqaUBKTNV-1" target="mdOWi9lv1OW8zj_rT4DC-57">
          <mxGeometry width="50" height="50" relative="1" as="geometry">
            <mxPoint x="600" y="280" as="sourcePoint" />
            <mxPoint x="650" y="420" as="targetPoint" />
          </mxGeometry>
        </mxCell>
        <mxCell id="mdOWi9lv1OW8zj_rT4DC-64" value="" style="endArrow=classic;html=1;rounded=0;entryX=0.5;entryY=0;entryDx=0;entryDy=0;" edge="1" parent="WIyWlLk6GJQsqaUBKTNV-1" target="mdOWi9lv1OW8zj_rT4DC-56">
          <mxGeometry width="50" height="50" relative="1" as="geometry">
            <mxPoint x="680" y="280" as="sourcePoint" />
            <mxPoint x="640" y="330" as="targetPoint" />
          </mxGeometry>
        </mxCell>
        <mxCell id="mdOWi9lv1OW8zj_rT4DC-65" value="" style="endArrow=classic;html=1;rounded=0;entryX=0.5;entryY=0;entryDx=0;entryDy=0;" edge="1" parent="WIyWlLk6GJQsqaUBKTNV-1" target="mdOWi9lv1OW8zj_rT4DC-58">
          <mxGeometry width="50" height="50" relative="1" as="geometry">
            <mxPoint x="760" y="280" as="sourcePoint" />
            <mxPoint x="750" y="330" as="targetPoint" />
          </mxGeometry>
        </mxCell>
        <mxCell id="mdOWi9lv1OW8zj_rT4DC-67" value="" style="endArrow=none;html=1;rounded=0;" edge="1" parent="WIyWlLk6GJQsqaUBKTNV-1">
          <mxGeometry width="50" height="50" relative="1" as="geometry">
            <mxPoint x="290" y="440" as="sourcePoint" />
            <mxPoint x="680" y="440" as="targetPoint" />
          </mxGeometry>
        </mxCell>
        <mxCell id="mdOWi9lv1OW8zj_rT4DC-69" value="" style="endArrow=none;html=1;rounded=0;entryX=0.5;entryY=1;entryDx=0;entryDy=0;" edge="1" parent="WIyWlLk6GJQsqaUBKTNV-1" target="mdOWi9lv1OW8zj_rT4DC-58">
          <mxGeometry width="50" height="50" relative="1" as="geometry">
            <mxPoint x="760" y="700" as="sourcePoint" />
            <mxPoint x="840" y="409.9999999999998" as="targetPoint" />
          </mxGeometry>
        </mxCell>
        <mxCell id="mdOWi9lv1OW8zj_rT4DC-70" value="hasil perhitungan" style="rounded=1;whiteSpace=wrap;html=1;absoluteArcSize=1;arcSize=14;strokeWidth=2;" vertex="1" parent="WIyWlLk6GJQsqaUBKTNV-1">
          <mxGeometry x="470" y="485" width="100" height="100" as="geometry" />
        </mxCell>
        <mxCell id="mdOWi9lv1OW8zj_rT4DC-71" value="END" style="strokeWidth=2;html=1;shape=mxgraph.flowchart.terminator;whiteSpace=wrap;" vertex="1" parent="WIyWlLk6GJQsqaUBKTNV-1">
          <mxGeometry x="460" y="670" width="100" height="60" as="geometry" />
        </mxCell>
        <mxCell id="mdOWi9lv1OW8zj_rT4DC-72" value="" style="endArrow=classic;html=1;rounded=0;entryX=1;entryY=0.5;entryDx=0;entryDy=0;entryPerimeter=0;" edge="1" parent="WIyWlLk6GJQsqaUBKTNV-1" target="mdOWi9lv1OW8zj_rT4DC-71">
          <mxGeometry width="50" height="50" relative="1" as="geometry">
            <mxPoint x="760" y="700" as="sourcePoint" />
            <mxPoint x="580" y="570" as="targetPoint" />
          </mxGeometry>
        </mxCell>
        <mxCell id="mdOWi9lv1OW8zj_rT4DC-74" value="" style="endArrow=classic;html=1;rounded=0;entryX=0;entryY=0.5;entryDx=0;entryDy=0;entryPerimeter=0;exitX=0.5;exitY=1;exitDx=0;exitDy=0;" edge="1" parent="WIyWlLk6GJQsqaUBKTNV-1" source="mdOWi9lv1OW8zj_rT4DC-43" target="mdOWi9lv1OW8zj_rT4DC-71">
          <mxGeometry width="50" height="50" relative="1" as="geometry">
            <mxPoint x="140" y="520" as="sourcePoint" />
            <mxPoint x="460" y="350" as="targetPoint" />
            <Array as="points">
              <mxPoint x="135" y="700" />
            </Array>
          </mxGeometry>
        </mxCell>
        <mxCell id="mdOWi9lv1OW8zj_rT4DC-75" value="" style="endArrow=classic;html=1;rounded=0;exitX=0.5;exitY=1;exitDx=0;exitDy=0;entryX=0.6;entryY=-0.011;entryDx=0;entryDy=0;entryPerimeter=0;" edge="1" parent="WIyWlLk6GJQsqaUBKTNV-1" source="mdOWi9lv1OW8zj_rT4DC-70" target="mdOWi9lv1OW8zj_rT4DC-71">
          <mxGeometry width="50" height="50" relative="1" as="geometry">
            <mxPoint x="420" y="490" as="sourcePoint" />
            <mxPoint x="470" y="440" as="targetPoint" />
          </mxGeometry>
        </mxCell>
        <mxCell id="mdOWi9lv1OW8zj_rT4DC-76" value="" style="endArrow=classic;html=1;rounded=0;entryX=0.5;entryY=0;entryDx=0;entryDy=0;" edge="1" parent="WIyWlLk6GJQsqaUBKTNV-1" target="mdOWi9lv1OW8zj_rT4DC-70">
          <mxGeometry width="50" height="50" relative="1" as="geometry">
            <mxPoint x="520" y="440" as="sourcePoint" />
            <mxPoint x="470" y="270" as="targetPoint" />
          </mxGeometry>
        </mxCell>
        <mxCell id="mdOWi9lv1OW8zj_rT4DC-86" value="" style="endArrow=none;html=1;rounded=0;exitX=0.5;exitY=1;exitDx=0;exitDy=0;" edge="1" parent="WIyWlLk6GJQsqaUBKTNV-1" source="mdOWi9lv1OW8zj_rT4DC-54">
          <mxGeometry width="50" height="50" relative="1" as="geometry">
            <mxPoint x="420" y="400" as="sourcePoint" />
            <mxPoint x="290" y="440" as="targetPoint" />
          </mxGeometry>
        </mxCell>
        <mxCell id="mdOWi9lv1OW8zj_rT4DC-87" value="" style="endArrow=none;html=1;rounded=0;exitX=0.443;exitY=1.025;exitDx=0;exitDy=0;exitPerimeter=0;" edge="1" parent="WIyWlLk6GJQsqaUBKTNV-1" source="mdOWi9lv1OW8zj_rT4DC-52">
          <mxGeometry width="50" height="50" relative="1" as="geometry">
            <mxPoint x="360" y="400" as="sourcePoint" />
            <mxPoint x="360" y="440" as="targetPoint" />
          </mxGeometry>
        </mxCell>
        <mxCell id="mdOWi9lv1OW8zj_rT4DC-88" value="" style="endArrow=none;html=1;rounded=0;exitX=0.5;exitY=1;exitDx=0;exitDy=0;" edge="1" parent="WIyWlLk6GJQsqaUBKTNV-1" source="mdOWi9lv1OW8zj_rT4DC-53">
          <mxGeometry width="50" height="50" relative="1" as="geometry">
            <mxPoint x="420" y="400" as="sourcePoint" />
            <mxPoint x="443" y="440" as="targetPoint" />
          </mxGeometry>
        </mxCell>
        <mxCell id="mdOWi9lv1OW8zj_rT4DC-90" value="" style="endArrow=none;html=1;rounded=0;exitX=0.5;exitY=1;exitDx=0;exitDy=0;" edge="1" parent="WIyWlLk6GJQsqaUBKTNV-1" source="mdOWi9lv1OW8zj_rT4DC-55">
          <mxGeometry width="50" height="50" relative="1" as="geometry">
            <mxPoint x="510" y="400" as="sourcePoint" />
            <mxPoint x="520" y="440" as="targetPoint" />
          </mxGeometry>
        </mxCell>
        <mxCell id="mdOWi9lv1OW8zj_rT4DC-91" value="" style="endArrow=none;html=1;rounded=0;exitX=0.5;exitY=1;exitDx=0;exitDy=0;" edge="1" parent="WIyWlLk6GJQsqaUBKTNV-1">
          <mxGeometry width="50" height="50" relative="1" as="geometry">
            <mxPoint x="599.7" y="370" as="sourcePoint" />
            <mxPoint x="599.7" y="440" as="targetPoint" />
          </mxGeometry>
        </mxCell>
        <mxCell id="mdOWi9lv1OW8zj_rT4DC-92" value="" style="endArrow=none;html=1;rounded=0;exitX=0.5;exitY=1;exitDx=0;exitDy=0;" edge="1" parent="WIyWlLk6GJQsqaUBKTNV-1" source="mdOWi9lv1OW8zj_rT4DC-56">
          <mxGeometry width="50" height="50" relative="1" as="geometry">
            <mxPoint x="640" y="400" as="sourcePoint" />
            <mxPoint x="680" y="440" as="targetPoint" />
          </mxGeometry>
        </mxCell>
      </root>
    </mxGraphModel>
  </diagram>
</mxfile>
